<svg width="1949" height="430" viewBox="0 0 1949 430" fill="none" xmlns="http://www.w3.org/2000/svg">
<path d="M0 200C0 105.719 0 58.5786 29.2893 29.2893C58.5786 0 105.719 0 200 0H272C366.281 0 413.421 0 442.711 29.2893C472 58.5786 472 105.719 472 200V220.144C472 314.424 472 361.565 442.711 390.854C413.421 420.144 366.281 420.143 272 420.143H200C105.719 420.143 58.5786 420.144 29.2893 390.854C0 361.565 0 314.424 0 220.144V200Z" fill="#EB7310"/>
<path d="M388.52 178.442C412.494 190.839 360.516 254.547 290.263 298.87C277.025 307.222 277.187 308.566 291.321 307.652C321.343 305.711 353.602 295.285 378.323 279.533C387.505 273.683 390.483 273.054 393.712 276.283C402.304 284.875 378.664 308.703 346.013 324.356C266.15 362.646 140.473 341.479 213.701 302.071C227.325 294.739 241.194 286.969 247.138 283.337C278.369 264.256 305.775 244.083 303.524 241.832C303.197 241.505 296.805 242.41 289.32 243.844C235.233 254.202 178.931 251.437 132.384 236.138C90.3679 222.328 70.4952 205.407 79.3119 190.947C84.5219 182.403 93.8031 182.45 112.412 191.118C184.097 224.503 276.191 223.001 353.861 187.178C377.352 176.344 382.132 175.139 388.52 178.442Z" fill="white"/>
<path d="M327.568 78.245C358.098 92.1902 351.229 159.87 319.285 159.87C307.026 159.87 297.326 150.556 292.801 134.44C283.384 100.907 304.052 67.5033 327.568 78.245Z" fill="white"/>
<path d="M168.831 78.753C194.006 90.4768 195.156 144.423 170.509 157.412C151.132 167.623 131.254 147.675 131.254 118.018C131.254 89.3212 149.835 69.9067 168.831 78.753Z" fill="white"/>
<path d="M1879.47 143.593H1949V313.39C1949 391.965 1904.44 429.144 1826.85 429.144C1796.74 429.144 1767.72 423.917 1744.4 413.629C1731.82 408.083 1728.24 392.855 1734.58 380.662C1742.58 365.274 1763.15 360.795 1779.59 366.322C1792.72 370.737 1807.08 373.183 1820.32 373.183C1859.5 373.183 1876.02 355.552 1876.02 322.972V316.073C1861.81 332.555 1840.68 340.604 1814.18 340.604C1758.86 340.604 1712 301.508 1712 240.182C1712 179.239 1758.86 140.144 1814.18 140.144C1842.98 140.144 1865.26 149.342 1879.47 168.89V143.593ZM1831.46 282.727C1857.58 282.727 1876.79 265.479 1876.79 240.182C1876.79 214.885 1857.58 198.02 1831.46 198.02C1805.34 198.02 1785.75 214.885 1785.75 240.182C1785.75 265.479 1805.34 282.727 1831.46 282.727Z" fill="#1A1A1A"/>
<path d="M1588.89 139.644C1645.32 139.644 1691 180.82 1691 247.009C1691 313.583 1645.32 355.144 1588.89 355.144C1561.64 355.144 1541.3 347.447 1527.48 330.9V351.68H1458V102.61C1458 82.4701 1474.33 66.1436 1494.47 66.1436C1514.61 66.1436 1530.93 82.47 1530.93 102.61V161.194C1545.14 146.571 1564.71 139.644 1588.89 139.644ZM1573.54 297.036C1598.11 297.036 1617.3 278.949 1617.3 247.009C1617.3 215.454 1598.11 197.752 1573.54 197.752C1548.97 197.752 1529.78 215.454 1529.78 247.009C1529.78 278.949 1548.97 297.036 1573.54 297.036Z" fill="#1A1A1A"/>
<path d="M1379.5 355.144C1355.08 355.144 1336 336.97 1336 311.45C1336 285.157 1355.08 268.144 1379.5 268.144C1404.3 268.144 1423 285.157 1423 311.45C1423 336.97 1404.3 355.144 1379.5 355.144Z" fill="#EB7310"/>
<path d="M1212.78 296.649H1285.75C1300.8 296.649 1313 308.848 1313 323.896C1313 338.945 1300.8 351.144 1285.75 351.144H1152.29C1135.01 351.144 1121 337.136 1121 319.857C1121 312.315 1123.72 305.027 1128.67 299.335L1217.38 197.254H1150.74C1135.8 197.254 1123.69 185.141 1123.69 170.199C1123.69 155.257 1135.8 143.144 1150.74 143.144H1278.15C1295.28 143.144 1309.16 157.026 1309.16 174.151C1309.16 181.625 1306.46 188.848 1301.56 194.49L1212.78 296.649Z" fill="#EB7310"/>
<path d="M1100 248.027C1100 258.205 1090.94 266.072 1080.76 266.072H947.412C953.561 287.188 971.626 299.474 998.531 299.474C1007.81 299.474 1015.65 298.279 1022.79 295.817C1037.62 290.699 1055.1 290.282 1065.98 301.585C1076.71 312.731 1077.19 330.796 1063.96 338.807C1046.11 349.613 1023.66 355.144 996.224 355.144C922.044 355.144 874 309.456 874 247.26C874 184.679 922.813 140.144 988.537 140.144C1050.03 140.144 1100 179.304 1100 248.027ZM988.922 191.974C966.245 191.974 950.486 205.795 946.258 227.679H1031.59C1027.74 205.795 1011.6 191.974 988.922 191.974Z" fill="#EB7310"/>
<path d="M762.429 119.429C762.429 98.8367 779.123 82.1436 799.715 82.1436C820.307 82.1436 837 98.8367 837 119.429V308.523C837 332.062 817.918 351.144 794.38 351.144C781.69 351.144 769.659 345.488 761.562 335.717L655.571 207.805V313.858C655.571 334.45 638.877 351.144 618.285 351.144C597.693 351.144 581 334.45 581 313.858V124.764C581 101.225 600.082 82.1436 623.62 82.1436C636.31 82.1436 648.341 87.7986 656.438 97.5701L762.429 225.482V119.429Z" fill="#EB7310"/>
</svg>
